<?xml version="1.0" standalone="no"?>
<!DOCTYPE svg PUBLIC "-//W3C//DTD SVG 20010904//EN"
 "http://www.w3.org/TR/2001/REC-SVG-20010904/DTD/svg10.dtd">
<svg version="1.0" xmlns="http://www.w3.org/2000/svg"
 width="1600.000000pt" height="1600.000000pt" viewBox="0 0 1600.000000 1600.000000"
 preserveAspectRatio="xMidYMid meet">

<g transform="translate(0.000000,1600.000000) scale(0.100000,-0.100000)"
fill="current" stroke="current">
<path fill="current" stroke="current" d="M3265 15000 c-1447 -14 -1853 -41 -1980 -128 -122 -84 -149 -282
-177 -1297 -18 -644 -18 -9891 0 -10815 14 -703 26 -1103 43 -1335 11 -157 32
-302 46 -316 43 -43 839 -73 2673 -101 1123 -18 7137 -18 8260 0 1834 28 2630
58 2673 101 26 26 51 308 67 746 31 857 35 1608 35 6460 0 4911 -3 5385 -35
5945 -19 320 -49 488 -99 559 -83 117 -311 145 -1376 172 -508 13 -8990 20
-10130 9z"/>
</g>
</svg>
